<?xml version="1.0" encoding="iso-8859-1"?>
<!-- Uploaded to: SVG Repo, www.svgrepo.com, Generator: SVG Repo Mixer Tools -->
<svg height="800px" width="800px" version="1.1" id="Layer_1" xmlns="http://www.w3.org/2000/svg" xmlns:xlink="http://www.w3.org/1999/xlink" 
	 viewBox="0 0 512 512" xml:space="preserve">
<g transform="translate(1 1)">
	<path style="fill:#FFE100;" d="M502.467,255c0,136.533-110.933,247.467-247.467,247.467S7.533,391.533,7.533,255
		S118.467,7.533,255,7.533S502.467,118.467,502.467,255L502.467,255z"/>
	<path style="fill:#63D3FD;" d="M331.8,84.333c14.507,0,25.6,11.093,25.6,25.6s-11.093,25.6-25.6,25.6h-17.067
		c-9.387,0-17.067-7.68-17.067-17.067c-9.387,0-17.067-7.68-17.067-17.067s7.68-17.067,17.067-17.067
		c0-9.387,7.68-17.067,17.067-17.067C324.12,67.267,331.8,74.947,331.8,84.333"/>
	<g>
		<polyline style="fill:#FDCC00;" points="357.4,383 255,186.733 152.6,383 		"/>
		<polyline style="fill:#FDCC00;" points="459.8,383 348.867,229.4 303.64,279.747 357.4,383 		"/>
		<polyline style="fill:#FDCC00;" points="152.6,383 206.36,279.747 161.133,229.4 50.2,383 		"/>
	</g>
	<path style="fill:#FFA800;" d="M255,7.533c-4.267,0-8.533,0-12.8,0C372.76,14.36,476.867,122.733,476.867,255
		S372.76,495.64,242.2,502.467c4.267,0,8.533,0,12.8,0c136.533,0,247.467-110.933,247.467-247.467S391.533,7.533,255,7.533"/>
	<path style="fill:#FFFFFF;" d="M255,7.533c4.267,0,8.533,0,12.8,0C137.24,14.36,33.133,122.733,33.133,255
		S137.24,495.64,267.8,502.467c-4.267,0-8.533,0-12.8,0C118.467,502.467,7.533,391.533,7.533,255S118.467,7.533,255,7.533"/>
	<polygon style="fill:#63D3FD;" points="222.573,248.173 255,280.6 288.28,250.733 255,186.733 	"/>
	<path d="M255,511C114.2,511-1,395.8-1,255S114.2-1,255-1s256,115.2,256,256S395.8,511,255,511z M255,16.067
		C123.587,16.067,16.067,123.587,16.067,255S123.587,493.933,255,493.933S493.933,386.413,493.933,255S386.413,16.067,255,16.067z"
		/>
	<path d="M357.4,391.533c-3.413,0-5.973-1.707-7.68-4.267L255,205.507l-94.72,181.76c-2.56,4.267-7.68,5.973-11.093,3.413
		c-4.267-2.56-5.973-7.68-3.413-11.093l102.4-196.267c2.56-5.973,11.947-5.973,15.36,0l102.4,196.267
		c2.56,4.267,0.853,9.387-3.413,11.093C359.96,391.533,359.107,391.533,357.4,391.533z"/>
	<path d="M357.4,391.533c-3.413,0-5.973-1.707-7.68-4.267l-53.76-103.253c-1.707-3.413-0.853-6.827,0.853-9.387l45.227-50.347
		c1.707-1.707,4.267-2.56,6.827-2.56c2.56,0,5.12,1.707,6.827,3.413l110.933,153.6c2.56,3.413,1.707,9.387-1.707,11.947
		c-4.267,2.56-9.387,1.707-11.947-1.707l-104.96-145.067l-34.133,38.4l51.2,98.133c2.56,4.267,0.853,9.387-3.413,11.093
		C359.96,391.533,359.107,391.533,357.4,391.533z"/>
	<path d="M152.6,391.533c-1.707,0-2.56,0-4.267-0.853c-4.267-2.56-5.973-7.68-3.413-11.093l51.2-98.133l-34.133-38.4L57.027,388.12
		c-2.56,3.413-7.68,4.267-11.947,1.707c-3.413-2.56-4.267-7.68-1.707-11.947l110.933-153.6c1.707-1.707,4.267-3.413,6.827-3.413
		c2.56,0,5.12,0.853,6.827,2.56l45.227,50.347c2.56,2.56,2.56,6.827,0.853,9.387l-53.76,103.253
		C158.573,389.827,156.013,391.533,152.6,391.533z"/>
	<path d="M144.067,178.2c-5.12,0-8.533-3.413-8.533-8.533c0-33.28,17.92-51.2,51.2-51.2c5.12,0,8.533,3.413,8.533,8.533
		s-3.413,8.533-8.533,8.533c-23.893,0-34.133,10.24-34.133,34.133C152.6,174.787,149.187,178.2,144.067,178.2z"/>
	<path d="M144.067,178.2c-5.12,0-8.533-3.413-8.533-8.533c0-18.773-6.827-25.6-25.6-25.6c-5.12,0-8.533-3.413-8.533-8.533
		s3.413-8.533,8.533-8.533c28.16,0,42.667,14.507,42.667,42.667C152.6,174.787,149.187,178.2,144.067,178.2z"/>
	<path d="M331.8,144.067h-17.067c-11.947,0-21.333-7.68-24.747-17.92c-10.24-3.413-17.92-12.8-17.92-24.747
		s7.68-21.333,17.92-24.747c3.413-10.24,12.8-17.92,24.747-17.92c11.093,0,21.333,7.68,24.747,17.92
		c15.36,3.413,26.453,17.067,26.453,33.28C365.933,128.707,350.573,144.067,331.8,144.067z M314.733,75.8
		c-5.12,0-8.533,3.413-8.533,8.533s-3.413,8.533-8.533,8.533s-8.533,3.413-8.533,8.533c0,5.12,3.413,8.533,8.533,8.533
		s8.533,3.413,8.533,8.533s3.413,8.533,8.533,8.533H331.8c9.387,0,17.067-7.68,17.067-17.067s-7.68-17.067-17.067-17.067
		c-5.12,0-8.533-3.413-8.533-8.533S319.853,75.8,314.733,75.8z"/>
	<path d="M255,289.133c-2.56,0-4.267-0.853-5.973-2.56L216.6,254.147c-2.56-2.56-3.413-6.827-1.707-10.24l32.427-61.44
		c2.56-5.973,11.947-5.973,15.36,0l33.28,64c1.707,3.413,0.853,7.68-1.707,10.24l-33.28,29.867
		C259.267,288.28,256.707,289.133,255,289.133z M233.667,246.467l22.187,22.187l22.187-19.627L255,205.507L233.667,246.467z"/>
	<path d="M289.133,391.533H118.467c-5.12,0-8.533-3.413-8.533-8.533c0-5.12,3.413-8.533,8.533-8.533h170.667
		c5.12,0,8.533,3.413,8.533,8.533C297.667,388.12,294.253,391.533,289.133,391.533z"/>
</g>
</svg>